<mxfile host="app.diagrams.net" modified="2022-06-09T22:32:48.553Z" agent="5.0 (Macintosh; Intel Mac OS X 10_15_7) AppleWebKit/537.36 (KHTML, like Gecko) Chrome/102.0.0.0 Safari/537.36" etag="YBrHEhOJ5ariQfNTOhKP" version="19.0.3" type="github">
  <diagram name="Page-1" id="efa7a0a1-bf9b-a30e-e6df-94a7791c09e9">
    <mxGraphModel dx="1425" dy="800" grid="1" gridSize="10" guides="1" tooltips="1" connect="1" arrows="1" fold="1" page="1" pageScale="1" pageWidth="826" pageHeight="1169" background="none" math="0" shadow="0">
      <root>
        <mxCell id="0" />
        <mxCell id="1" parent="0" />
        <mxCell id="1xThu41wvmxVhRVLNINy-115" value="Github" style="swimlane;swimlaneFillColor=none;fillColor=#6a00ff;strokeColor=#3700CC;fontColor=#ffffff;" vertex="1" parent="1">
          <mxGeometry x="551.08" y="20" width="488.92" height="360" as="geometry" />
        </mxCell>
        <mxCell id="1xThu41wvmxVhRVLNINy-116" value="Vercel" style="swimlane;gradientColor=none;fillColor=#1A1A1A;fontColor=#FFFFFF;" vertex="1" parent="1xThu41wvmxVhRVLNINy-115">
          <mxGeometry x="20" y="40" width="450" height="300" as="geometry">
            <mxRectangle x="20" y="40" width="70" height="23" as="alternateBounds" />
          </mxGeometry>
        </mxCell>
        <mxCell id="1xThu41wvmxVhRVLNINy-118" value="Secrets/Credentials" style="rounded=0;whiteSpace=wrap;html=1;" vertex="1" parent="1xThu41wvmxVhRVLNINy-116">
          <mxGeometry x="230" y="40" width="198.92" height="30" as="geometry" />
        </mxCell>
        <mxCell id="1xThu41wvmxVhRVLNINy-119" value="Domain" style="rounded=0;whiteSpace=wrap;html=1;" vertex="1" parent="1xThu41wvmxVhRVLNINy-116">
          <mxGeometry x="18.92" y="40" width="201.08" height="30" as="geometry" />
        </mxCell>
        <mxCell id="1xThu41wvmxVhRVLNINy-123" value="Frontend" style="swimlane;fontColor=#FFFFFF;fillColor=#1A1A1A;gradientColor=none;" vertex="1" parent="1xThu41wvmxVhRVLNINy-116">
          <mxGeometry x="18.92" y="80" width="200" height="200" as="geometry" />
        </mxCell>
        <mxCell id="1xThu41wvmxVhRVLNINy-152" value="styled-components" style="rounded=0;whiteSpace=wrap;html=1;" vertex="1" parent="1xThu41wvmxVhRVLNINy-123">
          <mxGeometry x="40" y="149" width="120" height="30" as="geometry" />
        </mxCell>
        <mxCell id="1xThu41wvmxVhRVLNINy-153" value="react" style="rounded=0;whiteSpace=wrap;html=1;" vertex="1" parent="1xThu41wvmxVhRVLNINy-123">
          <mxGeometry x="40" y="40" width="120" height="30" as="geometry" />
        </mxCell>
        <mxCell id="1xThu41wvmxVhRVLNINy-154" value="material design" style="rounded=0;whiteSpace=wrap;html=1;" vertex="1" parent="1xThu41wvmxVhRVLNINy-123">
          <mxGeometry x="40" y="90" width="120" height="30" as="geometry" />
        </mxCell>
        <mxCell id="1xThu41wvmxVhRVLNINy-124" value="Backend" style="swimlane;fontColor=#FFFFFF;fillColor=#1A1A1A;gradientColor=none;" vertex="1" parent="1xThu41wvmxVhRVLNINy-116">
          <mxGeometry x="228.91999999999996" y="80" width="200" height="200" as="geometry" />
        </mxCell>
        <mxCell id="1xThu41wvmxVhRVLNINy-128" value="Node.js" style="whiteSpace=wrap;html=1;aspect=fixed;" vertex="1" parent="1xThu41wvmxVhRVLNINy-124">
          <mxGeometry x="110" y="110" width="70" height="70" as="geometry" />
        </mxCell>
        <mxCell id="1xThu41wvmxVhRVLNINy-129" value="Typescript" style="whiteSpace=wrap;html=1;aspect=fixed;" vertex="1" parent="1xThu41wvmxVhRVLNINy-124">
          <mxGeometry x="20" y="110" width="70" height="70" as="geometry" />
        </mxCell>
        <mxCell id="1xThu41wvmxVhRVLNINy-155" value="Vercel Serverless Functions" style="rounded=0;whiteSpace=wrap;html=1;" vertex="1" parent="1xThu41wvmxVhRVLNINy-124">
          <mxGeometry x="20" y="40" width="160" height="30" as="geometry" />
        </mxCell>
      </root>
    </mxGraphModel>
  </diagram>
</mxfile>
